<?xml version="1.0" standalone="no"?>
<!DOCTYPE svg PUBLIC "-//W3C//DTD SVG 20010904//EN"
 "http://www.w3.org/TR/2001/REC-SVG-20010904/DTD/svg10.dtd">
<svg version="1.0" xmlns="http://www.w3.org/2000/svg"
 width="129.000000pt" height="109.000000pt" viewBox="0 0 129.000000 109.000000"
 preserveAspectRatio="xMidYMid meet">

<g transform="translate(0.000000,109.000000) scale(0.100000,-0.100000)"
fill="#000000" stroke="none">
<path d="M513 841 c-111 -38 -177 -107 -210 -220 -40 -138 39 -302 175 -364
74 -33 190 -31 264 6 110 54 172 153 172 277 2 149 -82 262 -224 304 -69 20
-112 20 -177 -3z m285 -203 c7 -7 12 -21 12 -33 0 -45 -59 -63 -82 -25 -8 12
-25 21 -43 21 l-30 2 30 4 c16 3 35 13 43 24 15 21 52 25 70 7z m-368 -164
c15 -37 13 -40 -23 -40 -34 0 -34 0 -24 33 12 39 34 43 47 7z m60 6 c12 -8 12
-10 1 -10 -8 0 -11 -3 -8 -7 4 -3 16 2 27 12 16 14 22 15 35 5 12 -10 18 -10
30 0 8 6 19 9 26 5 8 -6 7 -10 -2 -16 -10 -6 -11 -9 -1 -9 6 0 12 -7 12 -15 0
-8 -9 -15 -20 -15 -12 0 -20 7 -20 18 -1 16 -1 16 -11 0 -11 -20 -49 -24 -49
-6 0 9 -3 9 -12 0 -21 -21 -48 -14 -48 11 0 36 13 45 40 27z m207 -26 l3 -29
-12 25 c-11 25 -11 25 -15 3 -3 -13 -9 -23 -14 -23 -5 0 -10 10 -10 23 l-2 22
-4 -22 c-6 -33 -23 -28 -23 6 0 27 2 29 38 27 33 -3 37 -6 39 -32z m58 26 c4
-7 12 -7 18 -2 14 10 27 10 45 -1 14 -10 16 -47 2 -47 -5 0 -10 9 -10 20 0 11
-4 20 -10 20 -5 0 -10 -9 -10 -20 0 -25 -20 -27 -21 -2 -1 16 -2 16 -6 0 -6
-22 -41 -24 -49 -3 -6 15 12 45 27 45 4 0 11 -5 14 -10z"/>
<path d="M747 624 c-4 -4 -7 -16 -7 -26 0 -13 7 -18 26 -18 21 0 25 4 22 22
-3 23 -27 35 -41 22z"/>
</g>
</svg>
